<svg xmlns="http://www.w3.org/2000/svg" viewBox="0 0 24 24" fill="none" stroke-width="1.5"><path d="M7 20.6622C8.47087 21.513 10.1786 22 12 22C17.5228 22 22 17.5228 22 12C22 6.47715 17.5228 2 12 2C6.47715 2 2 6.47715 2 12C2 13.8214 2.48697 15.5291 3.33782 17M17.9054 3.92871L17.9376 3.99951C18.1717 4.71004 17.7035 6.13109 17.2354 6.84162C17.0658 7.09898 16.6812 7.4185 16.2597 7.72137C15.3092 8.40428 14.1097 8.74205 13.4998 9.99951C13.3255 10.359 13.3329 10.7103 13.4168 11.0158C13.4771 11.2354 13.5156 11.474 13.5162 11.7075C13.5182 12.4624 12.7547 13.0078 11.9998 12.9995C10.0355 12.9781 8.74968 11.3951 8.57465 9.44688C8.38739 7.36267 6.78008 5.42057 5.99984 4.71004L5.59668 4.31856M16.005 16.6324C16.9277 16.4134 17.7182 16.4134 17.7182 16.4134C21.1699 16.3774 21.619 14.2699 21.9291 13.2227M13.4365 18.2755C12.6837 19.694 13.0659 21.2251 13.3885 21.904" stroke="currentColor" stroke-linecap="round"/></svg>