<svg xmlns="http://www.w3.org/2000/svg" viewBox="0 0 24 24" fill="none" stroke-width="1.5" class="solar solar-screen-share-linear"><path d="M8 8C8 5.17157 8 3.75736 8.87868 2.87868C9.75736 2 11.1716 2 14 2H15C17.8284 2 19.2426 2 20.1213 2.87868C21 3.75736 21 5.17157 21 8V16C21 18.8284 21 20.2426 20.1213 21.1213C19.2426 22 17.8284 22 15 22H14C11.1716 22 9.75736 22 8.87868 21.1213C8 20.2426 8 18.8284 8 16V8Z" stroke="currentColor" stroke-linecap="round"/>
<path d="M8.14114 4.5H8C5.64298 4.5 4.46447 4.5 3.73223 5.23223C3 5.96447 3 7.14298 3 9.5V14.5C3 16.857 3 18.0355 3.73223 18.7678C4.46447 19.5 5.64298 19.5 8 19.5H8.14114" stroke="currentColor" stroke-linecap="round"/>
<path d="M14.5 16V8M12 10.5L14.5 8L17 10.5" stroke="currentColor" stroke-linecap="round" stroke-linejoin="round"/></svg>